<?xml version="1.0" encoding="UTF-8" standalone="no"?>
<!DOCTYPE svg PUBLIC "-//W3C//DTD SVG 1.1//EN" "http://www.w3.org/Graphics/SVG/1.1/DTD/svg11.dtd">
<svg width="100%" height="100%" viewBox="0 0 102 109" version="1.1" xmlns="http://www.w3.org/2000/svg" xmlns:xlink="http://www.w3.org/1999/xlink" xml:space="preserve" xmlns:serif="http://www.serif.com/" style="fill-rule:evenodd;clip-rule:evenodd;stroke-linejoin:round;stroke-miterlimit:2;">
    <g transform="matrix(1,0,0,1,-4158.91,-7098.98)">
        <g transform="matrix(2.66667,0,0,2.66667,0,0)">
            <g transform="matrix(1,0,0,1,1559.63,2690.21)">
                <path d="M0,-15.611C-0.017,-18.236 0.598,-20.688 2.029,-22.91C2.794,-24.099 3.744,-25.117 4.866,-25.981C5.348,-26.353 5.791,-26.776 6.252,-27.176C6.578,-27.459 6.929,-27.705 7.327,-27.876C8.173,-28.241 8.978,-28.134 9.747,-27.656C10.392,-27.256 10.898,-26.708 11.366,-26.121C12.087,-25.214 12.665,-24.212 13.293,-23.242C13.729,-22.568 14.136,-21.876 14.463,-21.14C14.753,-20.486 14.977,-19.813 15.052,-19.096C15.176,-17.897 14.82,-16.857 13.975,-16.007C13.495,-15.523 12.971,-15.08 12.448,-14.641C12.088,-14.338 11.699,-14.068 11.318,-13.789C10.819,-13.425 10.382,-13.007 10.118,-12.436C9.807,-11.765 9.792,-11.065 9.926,-10.354C10.103,-9.415 10.497,-8.559 10.961,-7.733C11.674,-6.462 12.544,-5.3 13.471,-4.181C14.472,-2.972 15.521,-1.807 16.674,-0.739C17.556,0.077 18.482,0.836 19.546,1.407C20.124,1.717 20.728,1.956 21.386,2.035C22.233,2.137 22.987,1.917 23.644,1.377C23.833,1.222 24.019,1.059 24.178,0.875C24.781,0.179 25.497,-0.393 26.191,-0.989C26.501,-1.256 26.839,-1.504 27.196,-1.702C28.164,-2.238 29.185,-2.262 30.225,-1.927C31.082,-1.651 31.855,-1.211 32.555,-0.658C33.457,0.056 34.331,0.806 35.209,1.55C35.879,2.118 36.51,2.726 37.039,3.431C37.382,3.888 37.667,4.374 37.811,4.933C37.987,5.62 37.888,6.269 37.5,6.857C37.312,7.141 37.092,7.415 36.843,7.646C36.124,8.317 35.394,8.978 34.647,9.617C32.986,11.038 31.07,11.936 28.924,12.34C27.48,12.612 26.03,12.63 24.576,12.43C22.366,12.125 20.317,11.352 18.37,10.285C16.378,9.194 14.567,7.85 12.878,6.34C9.824,3.609 7.144,0.547 4.807,-2.814C3.409,-4.826 2.209,-6.949 1.322,-9.24C0.791,-10.608 0.384,-12.012 0.18,-13.467C0.08,-14.176 0.036,-14.893 -0.033,-15.606C-0.022,-15.608 -0.011,-15.609 0,-15.611" style="fill:rgb(0,185,111);fill-rule:nonzero;"/>
            </g>
        </g>
    </g>
</svg>
