<?xml version="1.0" encoding="UTF-8" standalone="no"?>
<!DOCTYPE svg PUBLIC "-//W3C//DTD SVG 1.1//EN" "http://www.w3.org/Graphics/SVG/1.1/DTD/svg11.dtd">
<svg width="100%" height="100%" viewBox="0 0 129 129" version="1.1" xmlns="http://www.w3.org/2000/svg" xmlns:xlink="http://www.w3.org/1999/xlink" xml:space="preserve" xmlns:serif="http://www.serif.com/" style="fill-rule:evenodd;clip-rule:evenodd;stroke-miterlimit:10;">
    <g transform="matrix(1,0,0,1,-4705.1,-433.396)">
        <g transform="matrix(2.66667,0,0,2.66667,0,0)">
            <g transform="matrix(1,0,0,1,1783.52,181.758)">
                <path d="M0,9.446C-4.944,9.281 -9.401,4.557 -9.216,-0.322C-9.03,-5.218 -4.398,-9.499 0.657,-9.447C5.383,-9.399 9.803,-4.906 9.76,-0.195C9.712,5.181 5.218,9.62 0,9.446M22.761,19.23C20.13,16.684 17.65,13.977 14.935,11.528C12.737,9.545 11.794,8.002 13.446,4.785C16.282,-0.736 13.851,-5.767 9.953,-9.947C5.944,-14.245 -0.505,-15.331 -5.944,-13.029C-10.704,-11.015 -14.086,-5.876 -14.082,-0.669C-14.072,10.271 -4.188,17.108 5.995,12.939C8.449,11.934 9.686,12.423 11.265,14.11C13.982,17.012 16.837,19.793 19.724,22.53C20.697,23.451 21.825,24.777 23.365,23.228C24.948,21.635 24.023,20.451 22.761,19.23" style="fill:rgb(182,182,182);fill-rule:nonzero;"/>
            </g>
        </g>
        <g transform="matrix(2.66667,0,0,2.66667,0,0)">
            <g transform="matrix(1,0,0,1,1783.52,181.758)">
                <path d="M0,9.446C-4.944,9.281 -9.401,4.557 -9.216,-0.322C-9.03,-5.218 -4.398,-9.499 0.657,-9.447C5.383,-9.399 9.803,-4.906 9.76,-0.195C9.712,5.181 5.218,9.62 0,9.446ZM22.761,19.23C20.13,16.684 17.65,13.977 14.935,11.528C12.737,9.545 11.794,8.002 13.446,4.785C16.282,-0.736 13.851,-5.767 9.953,-9.947C5.944,-14.245 -0.505,-15.331 -5.944,-13.029C-10.704,-11.015 -14.086,-5.876 -14.082,-0.669C-14.072,10.271 -4.188,17.108 5.995,12.939C8.449,11.934 9.686,12.423 11.265,14.11C13.982,17.012 16.837,19.793 19.724,22.53C20.697,23.451 21.825,24.777 23.365,23.228C24.948,21.635 24.023,20.451 22.761,19.23Z" style="fill:none;fill-rule:nonzero;stroke:rgb(182,182,182);stroke-width:1px;"/>
            </g>
        </g>
    </g>
</svg>
