<?xml version="1.0" encoding="UTF-8" standalone="no"?>
<!DOCTYPE svg PUBLIC "-//W3C//DTD SVG 1.1//EN" "http://www.w3.org/Graphics/SVG/1.1/DTD/svg11.dtd">
<svg width="100%" height="100%" viewBox="0 0 159 143" version="1.1" xmlns="http://www.w3.org/2000/svg" xmlns:xlink="http://www.w3.org/1999/xlink" xml:space="preserve" xmlns:serif="http://www.serif.com/" style="fill-rule:evenodd;clip-rule:evenodd;stroke-linejoin:round;stroke-miterlimit:2;">
    <g transform="matrix(1,0,0,1,-5530.04,-443.214)">
        <g transform="matrix(2.66667,0,0,2.66667,0,0)">
            <g transform="matrix(1,0,0,1,2103.49,191.85)">
                <path d="M0,-20.573C-5.672,-20.573 -10.287,-15.959 -10.287,-10.287C-10.287,-4.615 -5.672,0 0,0C5.672,0 10.286,-4.615 10.286,-10.287C10.286,-15.959 5.672,-20.573 0,-20.573M0,5.072C-8.469,5.072 -15.359,-1.818 -15.359,-10.287C-15.359,-18.755 -8.469,-25.645 0,-25.645C8.469,-25.645 15.358,-18.755 15.358,-10.287C15.358,-1.818 8.469,5.072 0,5.072" style="fill-rule:nonzero;"/>
            </g>
        </g>
        <g transform="matrix(2.66667,0,0,2.66667,0,0)">
            <g transform="matrix(1,0,0,1,2128.15,202.983)">
                <path d="M0,16.829C-0.015,16.352 -0.625,5.249 -24.1,5.075C-48.625,5.251 -49.314,16.676 -49.314,16.792L-54.386,16.792C-54.386,16.115 -54.042,0.407 -24.665,0.008L-24.665,0L-23.52,0.009C4.74,0.422 5.072,16.115 5.072,16.792L0,16.792L2.535,16.792L0,16.829Z" style="fill-rule:nonzero;"/>
            </g>
        </g>
    </g>
</svg>
