<?xml version="1.0" encoding="UTF-8" standalone="no"?>
<!DOCTYPE svg PUBLIC "-//W3C//DTD SVG 1.1//EN" "http://www.w3.org/Graphics/SVG/1.1/DTD/svg11.dtd">
<svg width="100%" height="100%" viewBox="0 0 160 139" version="1.1" xmlns="http://www.w3.org/2000/svg" xmlns:xlink="http://www.w3.org/1999/xlink" xml:space="preserve" xmlns:serif="http://www.serif.com/" style="fill-rule:evenodd;clip-rule:evenodd;stroke-linejoin:round;stroke-miterlimit:2;">
    <g transform="matrix(1,0,0,1,-5807.81,-446.184)">
        <g transform="matrix(2.66667,0,0,2.66667,0,0)">
            <g transform="matrix(1,0,0,1,2194.36,211.439)">
                <path d="M0,-39.026C-1.675,-39.026 -3.481,-38.602 -5.382,-37.541C-8.769,-35.651 -10.675,-33.314 -11.21,-30.394C-12.004,-26.067 -9.622,-20.214 -4.677,-14.335C1.155,-7.402 10.017,-0.349 13.473,2.301C16.93,-0.349 25.791,-7.402 31.623,-14.335C36.568,-20.214 38.95,-26.067 38.156,-30.394C37.621,-33.314 35.715,-35.651 32.328,-37.541C22.949,-42.773 15.873,-32.539 15.577,-32.101L13.465,-28.98L11.365,-32.106C11.132,-32.451 6.586,-39.026 0,-39.026M14.347,7.979L12.599,7.979L11.931,7.49C11.414,7.113 -0.818,-1.869 -8.559,-11.07C-14.568,-18.214 -17.282,-25.402 -16.199,-31.308C-15.385,-35.748 -12.577,-39.335 -7.853,-41.97C1.171,-47.005 9.13,-42.227 13.473,-37.565C17.816,-42.227 25.774,-47.004 34.799,-41.97C39.523,-39.335 42.332,-35.748 43.146,-31.308C44.228,-25.402 41.514,-18.214 35.504,-11.07C27.764,-1.869 15.532,7.113 15.015,7.49L14.347,7.979Z" style="fill-rule:nonzero;"/>
            </g>
        </g>
    </g>
</svg>
